<svg width="66" height="30" viewBox="0 0 66 30" fill="none" xmlns="http://www.w3.org/2000/svg">
<path d="M20.0225 24.04H9.5425L7.8625 29H0.7025L10.8625 0.919999H18.7825L28.9425 29H21.7025L20.0225 24.04ZM18.2625 18.76L14.7825 8.48L11.3425 18.76H18.2625ZM46.3547 29L40.5147 18.4H38.8747V29H32.0347V0.919999H43.5147C45.728 0.919999 47.608 1.30667 49.1547 2.08C50.728 2.85333 51.9014 3.92 52.6747 5.28C53.448 6.61333 53.8347 8.10667 53.8347 9.76C53.8347 11.6267 53.3014 13.2933 52.2347 14.76C51.1947 16.2267 49.648 17.2667 47.5947 17.88L54.0747 29H46.3547ZM38.8747 13.56H43.1147C44.368 13.56 45.3014 13.2533 45.9147 12.64C46.5547 12.0267 46.8747 11.16 46.8747 10.04C46.8747 8.97333 46.5547 8.13333 45.9147 7.52C45.3014 6.90667 44.368 6.6 43.1147 6.6H38.8747V13.56Z" fill="#FEFEFE"/>
<path d="M61.3284 29.32C60.1284 29.32 59.1418 28.9733 58.3684 28.28C57.6218 27.56 57.2484 26.68 57.2484 25.64C57.2484 24.5733 57.6218 23.68 58.3684 22.96C59.1418 22.24 60.1284 21.88 61.3284 21.88C62.5018 21.88 63.4618 22.24 64.2084 22.96C64.9818 23.68 65.3684 24.5733 65.3684 25.64C65.3684 26.68 64.9818 27.56 64.2084 28.28C63.4618 28.9733 62.5018 29.32 61.3284 29.32Z" fill="#CE0C0C"/>
</svg>
