<svg width="20" height="20" viewBox="0 0 20 20" fill="none" xmlns="http://www.w3.org/2000/svg">
<path d="M13.5714 10.1429C13.5714 11.8739 12.1596 13.2857 10.4286 13.2857C8.69755 13.2857 7.28571 11.8739 7.28571 10.1429C7.28571 8.41183 8.69755 7 10.4286 7C12.1596 7 13.5714 8.41183 13.5714 10.1429ZM15.2656 10.1429C15.2656 7.46652 13.1049 5.3058 10.4286 5.3058C7.75223 5.3058 5.59152 7.46652 5.59152 10.1429C5.59152 12.8192 7.75223 14.9799 10.4286 14.9799C13.1049 14.9799 15.2656 12.8192 15.2656 10.1429ZM16.5915 5.10938C16.5915 4.48326 16.0882 3.97991 15.4621 3.97991C14.8359 3.97991 14.3326 4.48326 14.3326 5.10938C14.3326 5.73549 14.8359 6.23884 15.4621 6.23884C16.0882 6.23884 16.5915 5.73549 16.5915 5.10938ZM10.4286 2.40848C11.8036 2.40848 14.75 2.29799 15.99 2.78906C16.4196 2.96094 16.7388 3.16964 17.0703 3.50112C17.4018 3.83259 17.6105 4.15178 17.7824 4.58147C18.2734 5.82143 18.1629 8.76786 18.1629 10.1429C18.1629 11.5179 18.2734 14.4643 17.7824 15.7042C17.6105 16.1339 17.4018 16.4531 17.0703 16.7846C16.7388 17.1161 16.4196 17.3248 15.99 17.4967C14.75 17.9877 11.8036 17.8772 10.4286 17.8772C9.05357 17.8772 6.10714 17.9877 4.86719 17.4967C4.4375 17.3248 4.1183 17.1161 3.78683 16.7846C3.45536 16.4531 3.24665 16.1339 3.07478 15.7042C2.58371 14.4643 2.6942 11.5179 2.6942 10.1429C2.6942 8.76786 2.58371 5.82143 3.07478 4.58147C3.24665 4.15178 3.45536 3.83259 3.78683 3.50112C4.1183 3.16964 4.4375 2.96094 4.86719 2.78906C6.10714 2.29799 9.05357 2.40848 10.4286 2.40848ZM19.8571 10.1429C19.8571 8.84152 19.8694 7.55245 19.7958 6.25112C19.7221 4.74107 19.3783 3.4029 18.2734 2.29799C17.1685 1.19308 15.8304 0.849329 14.3203 0.775669C13.019 0.702008 11.7299 0.714285 10.4286 0.714285C9.12723 0.714285 7.83817 0.702008 6.53683 0.775669C5.02679 0.849329 3.68862 1.19308 2.58371 2.29799C1.47879 3.4029 1.13504 4.74107 1.06138 6.25112C0.987723 7.55245 1 8.84152 1 10.1429C1 11.4442 0.987723 12.7333 1.06138 14.0346C1.13504 15.5446 1.47879 16.8828 2.58371 17.9877C3.68862 19.0926 5.02679 19.4364 6.53683 19.51C7.83817 19.5837 9.12723 19.5714 10.4286 19.5714C11.7299 19.5714 13.019 19.5837 14.3203 19.51C15.8304 19.4364 17.1685 19.0926 18.2734 17.9877C19.3783 16.8828 19.7221 15.5446 19.7958 14.0346C19.8694 12.7333 19.8571 11.4442 19.8571 10.1429Z" fill="#F5F5F5"/>
</svg>
