<svg width="19" height="19" viewBox="0 0 19 19" fill="none" xmlns="http://www.w3.org/2000/svg">
<path d="M4.2846 6.81585H0.233259V18.9821H4.2846V6.81585ZM4.54241 3.05915C4.53013 1.8683 3.67076 0.959821 2.28348 0.959821C0.908482 0.959821 0 1.8683 0 3.05915C0 4.22545 0.871652 5.15848 2.23438 5.15848H2.25893C3.67076 5.15848 4.55469 4.22545 4.54241 3.05915ZM18.8571 12.0089C18.8571 8.27679 16.8683 6.53348 14.2042 6.53348C12.019 6.53348 11.0614 7.74888 10.5335 8.5837H10.558V6.81585H6.51897C6.51897 6.81585 6.56808 7.95759 6.51897 18.9821H10.558V12.1931C10.558 11.8248 10.5949 11.4688 10.6931 11.1987C10.9877 10.4743 11.6507 9.72545 12.7679 9.72545C14.2288 9.72545 14.8181 10.8426 14.8181 12.4754V18.9821H18.8571V12.0089Z" fill="#F5F5F5"/>
</svg>
