<svg width="33" height="46" viewBox="0 0 33 46" fill="none" xmlns="http://www.w3.org/2000/svg">
<path d="M0.5 9.32622H32.5L29.4785 41.7957L16.4771 45.5L3.47568 41.7957L0.5 9.32622ZM3.47568 6.58232V0.5H5.53577V2.5122H7.36695V0.5H9.38126V6.58232H7.36695V4.57012H5.53577V6.58232H3.47568ZM6.45136 15.9573L7.55007 28.122L7.59585 28.0305H21.3298L20.872 33.1982L16.4771 34.4329L12.0365 33.1524L11.7618 30.0427H7.73319L8.28255 36.2636L16.4771 38.5959L24.6731 36.2636L25.8176 24.0533H11.2124L10.8462 19.9831H26.1824L26.5501 15.9587H6.45136V15.9573ZM10.2969 2.55793V0.5H15.882V2.55793H14.0966V6.58232H12.0837V2.55793H10.2969ZM16.7518 6.58232V0.5H18.9034L20.1395 2.60366L21.4213 0.5H23.573V6.58232H21.603V3.47256L20.1395 5.75915V5.71341L18.7647 3.56402V6.58232H16.7518ZM24.6259 6.58232V0.5H26.6402V4.52439H29.4771V6.58232H24.6259Z" fill="#ffffff"/>
</svg>
