<svg width="33" height="46" viewBox="0 0 33 46" fill="none" xmlns="http://www.w3.org/2000/svg">
<g clip-path="url(#clip0_997_19)">
<path d="M25.493 2.55873H22.8615L25.5981 5.4883V6.88295H19.9616V5.24994H22.6979L19.9616 2.32037V0.924316H25.493V2.55873ZM18.8439 2.55873H16.2124L18.9491 5.4883V6.88295H13.3122V5.24994H16.0488L13.3122 2.32037V0.924316H18.8439V2.55873ZM12.2601 2.62553H9.42047V5.18174H12.2601V6.88295H7.40192V0.924316H12.2601V2.62553Z" fill="white"/>
<path d="M3.5323 41.5295L0.646667 9.60303H32.353L29.4649 41.5242L16.4804 45.0757L3.5323 41.5295Z" fill="#ffffff"/>
<path d="M16.5004 42.3614L26.9919 39.492L29.4602 12.2139H16.5004V42.3614Z" fill="#ffffff"/>
<path d="M16.5 23.7807H21.7524L22.1155 19.7712H16.5V15.8555H26.4534L26.3583 16.9059L25.3828 27.6961H16.5V23.7807Z" fill="#191B1E"/>
<path d="M16.5239 33.95L16.5064 33.955L12.0858 32.7772L11.8029 29.6543H7.81885L8.37516 35.8024L16.5057 38.0289L16.5242 38.0236L16.5239 33.95Z" fill="#191B1E"/>
<path d="M21.4152 27.5303L20.9369 32.7742L16.5099 33.953V38.0269L24.6472 35.8022L24.7071 35.1405L25.3978 27.5303H21.4152Z" fill="#191B1E"/>
<path d="M16.5139 15.8555V19.7708H6.92611L6.84627 18.8909L6.66559 16.9059L6.57043 15.8555H16.5139ZM16.5 23.7811V27.6968H12.1354L12.0559 26.8168L11.8748 24.8316L11.7797 23.7811H16.5Z" fill="#191B1E"/>
</g>
<defs>
<clipPath id="clip0_997_19">
<rect width="32" height="45" fill="white" transform="translate(0.5 0.5)"/>
</clipPath>
</defs>
</svg>
