<svg width="45" height="46" viewBox="0 0 45 46" fill="none" xmlns="http://www.w3.org/2000/svg">
<g clip-path="url(#clip0_997_8)">
<path fill-rule="evenodd" clip-rule="evenodd" d="M22.5 1.03174C14.2408 1.03174 7.54279 7.72795 7.54279 15.989C7.54279 22.5973 11.8283 28.204 17.7715 30.1815C18.5189 30.3201 18.7935 29.857 18.7935 29.4619C18.7935 29.1054 18.7794 27.927 18.7731 26.6775C14.6117 27.5821 13.7338 24.9127 13.7338 24.9127C13.0535 23.1837 12.073 22.7238 12.073 22.7238C10.716 21.7957 12.175 21.8147 12.175 21.8147C13.6772 21.9202 14.4682 23.3563 14.4682 23.3563C15.802 25.6429 17.9673 24.9816 18.8206 24.5994C18.9552 23.6326 19.3426 22.9724 19.7705 22.599C16.4482 22.2211 12.9558 20.9383 12.9558 15.2071C12.9558 13.5741 13.5401 12.2399 14.497 11.1922C14.3417 10.8154 13.8298 9.29381 14.6419 7.23365C14.6419 7.23365 15.8977 6.83217 18.7552 8.76752C19.9487 8.436 21.2284 8.26971 22.4993 8.26408C23.7706 8.27006 25.0509 8.43635 26.2463 8.76752C29.1009 6.83252 30.3553 7.234 30.3553 7.234C31.1695 9.29416 30.6577 10.8154 30.5023 11.1926C31.4613 12.2396 32.0414 13.5741 32.0414 15.2074C32.0414 20.952 28.5423 22.2169 25.2116 22.5867C25.7481 23.0508 26.2262 23.9613 26.2262 25.3571C26.2262 27.3581 26.2093 28.9687 26.2093 29.4612C26.2093 29.8585 26.4786 30.3253 27.2366 30.1784C33.1766 28.1984 37.4565 22.5938 37.4565 15.9876C37.4572 7.7283 30.7607 1.03174 22.5 1.03174Z" fill="#E0E0E0"/>
<path d="M13.2082 22.5064C13.1748 22.5809 13.0577 22.6031 12.9516 22.5521C12.8426 22.5029 12.7821 22.402 12.8173 22.3271C12.8489 22.2511 12.9663 22.2297 13.075 22.2807C13.1839 22.3299 13.2455 22.4319 13.2082 22.5064ZM13.8139 23.1828C13.7426 23.2485 13.603 23.2179 13.5081 23.1132C13.4103 23.0088 13.3921 22.8692 13.4645 22.8024C13.5376 22.7363 13.673 22.7672 13.7703 22.8717C13.8688 22.9771 13.8881 23.1153 13.8136 23.1824L13.8139 23.1828ZM14.4035 24.0434C14.3121 24.1074 14.162 24.0476 14.0695 23.9144C13.9774 23.7819 13.9774 23.6226 14.0713 23.5583C14.1641 23.4943 14.3118 23.5519 14.4053 23.6838C14.4974 23.8191 14.4974 23.9787 14.4035 24.0434ZM15.2114 24.8759C15.1295 24.9663 14.9548 24.942 14.8271 24.8186C14.6964 24.698 14.6601 24.5268 14.7421 24.4365C14.8254 24.3461 15.0008 24.3714 15.1295 24.4938C15.2596 24.614 15.2989 24.7859 15.2114 24.8759ZM16.3266 25.359C16.29 25.4764 16.1219 25.5295 15.9525 25.4799C15.783 25.4286 15.6726 25.2915 15.7064 25.1733C15.7416 25.0552 15.911 25 16.0815 25.0531C16.2503 25.1037 16.3614 25.2394 16.3266 25.359ZM17.55 25.4486C17.5546 25.5717 17.4108 25.6743 17.2329 25.6764C17.0543 25.6806 16.9094 25.5808 16.9073 25.4592C16.9073 25.3347 17.048 25.2335 17.2266 25.2306C17.4044 25.2271 17.55 25.3263 17.55 25.4486ZM18.6891 25.2549C18.7102 25.3751 18.5871 25.4989 18.4103 25.5316C18.2366 25.5639 18.0763 25.4894 18.0538 25.3699C18.0327 25.2468 18.1582 25.1238 18.3315 25.0914C18.5084 25.0605 18.6666 25.1326 18.6891 25.2549Z" fill="#E0E0E0"/>
<path d="M8.73807 38.5751H4.97635C4.92973 38.5751 4.88502 38.5936 4.85205 38.6266C4.81909 38.6596 4.80057 38.7043 4.80057 38.7509V40.5903C4.80057 40.6369 4.81909 40.6816 4.85205 40.7146C4.88502 40.7475 4.92973 40.766 4.97635 40.766H6.44342V43.0512C6.44342 43.0512 6.11401 43.1637 5.2024 43.1637C4.12803 43.1637 2.62651 42.7713 2.62651 39.4695C2.62651 36.1672 4.19026 35.7324 5.65838 35.7324C6.92893 35.7324 7.47596 35.956 7.82471 36.0639C7.93369 36.0969 8.03565 35.988 8.03565 35.8909L8.45506 34.1138C8.45574 34.0872 8.44995 34.0608 8.4382 34.0369C8.42644 34.013 8.40906 33.9924 8.38756 33.9767C8.24588 33.8754 7.38315 33.3931 5.20311 33.3931C2.69155 33.3931 0.115295 34.4611 0.115295 39.5981C0.115295 44.7345 3.0649 45.4998 5.55045 45.4998C7.6085 45.4998 8.8569 44.6202 8.8569 44.6202C8.90823 44.5921 8.91385 44.52 8.91385 44.4866V38.7505C8.91385 38.7039 8.89533 38.6592 8.86237 38.6262C8.8294 38.5933 8.78469 38.5751 8.73807 38.5751ZM27.9513 33.8318H25.8328C25.8097 33.8319 25.7868 33.8366 25.7655 33.8455C25.7442 33.8544 25.7248 33.8675 25.7086 33.8839C25.6923 33.9003 25.6795 33.9198 25.6707 33.9412C25.662 33.9626 25.6576 33.9855 25.6577 34.0087L25.6584 38.1022H22.3565V34.0087C22.3567 33.9856 22.3523 33.9627 22.3436 33.9413C22.3349 33.9199 22.322 33.9005 22.3058 33.884C22.2896 33.8676 22.2703 33.8546 22.249 33.8456C22.2277 33.8366 22.2049 33.832 22.1818 33.8318H20.0637C20.0405 33.8319 20.0177 33.8366 19.9964 33.8455C19.975 33.8544 19.9557 33.8675 19.9394 33.8839C19.9232 33.9003 19.9103 33.9198 19.9016 33.9412C19.8929 33.9626 19.8884 33.9855 19.8886 34.0087V45.0934C19.8886 45.1908 19.9673 45.2703 20.0637 45.2703H22.1818C22.2049 45.2701 22.2278 45.2654 22.2491 45.2564C22.2704 45.2475 22.2897 45.2344 22.3059 45.2179C22.3222 45.2014 22.335 45.1819 22.3437 45.1605C22.3524 45.1391 22.3567 45.1162 22.3565 45.0931V40.3519H25.6584L25.6528 45.0931C25.6528 45.1908 25.7315 45.2703 25.8286 45.2703H27.9513C27.9744 45.2701 27.9973 45.2654 28.0186 45.2564C28.0399 45.2475 28.0592 45.2344 28.0754 45.2179C28.0917 45.2014 28.1045 45.1819 28.1132 45.1605C28.1218 45.1391 28.1262 45.1162 28.126 45.0931V34.0083C28.126 33.9106 28.0487 33.8318 27.9513 33.8318ZM11.3695 34.0839C10.6158 34.0839 10.004 34.7002 10.004 35.4631C10.004 36.2249 10.6158 36.843 11.3695 36.843C12.124 36.843 12.7353 36.2249 12.7353 35.4631C12.7353 34.7002 12.1236 34.0839 11.3695 34.0839ZM12.4087 37.4617H10.2972C10.2002 37.4617 10.1137 37.5615 10.1137 37.6586V44.9894C10.1137 45.2049 10.248 45.2689 10.4217 45.2689H12.3237C12.5328 45.2689 12.5838 45.1662 12.5838 44.9858V42.7548V37.6385C12.5839 37.6155 12.5794 37.5926 12.5707 37.5712C12.562 37.5499 12.5491 37.5304 12.5328 37.514C12.5166 37.4976 12.4972 37.4846 12.4759 37.4757C12.4547 37.4668 12.4318 37.4618 12.4087 37.4617ZM36.1765 37.4782H34.0741C34.051 37.4784 34.0282 37.4831 34.007 37.4921C33.9857 37.5011 33.9664 37.5142 33.9502 37.5307C33.934 37.5472 33.9212 37.5666 33.9126 37.588C33.9039 37.6094 33.8996 37.6323 33.8997 37.6554V43.0906C33.8997 43.0906 33.3654 43.4808 32.6078 43.4808C31.8501 43.4808 31.649 43.1373 31.649 42.3952V37.6554C31.6492 37.6323 31.6449 37.6094 31.6362 37.588C31.6275 37.5665 31.6147 37.547 31.5984 37.5306C31.5822 37.5141 31.5629 37.501 31.5416 37.492C31.5203 37.4831 31.4974 37.4784 31.4743 37.4782H29.341C29.2944 37.4786 29.2497 37.4974 29.2169 37.5307C29.1841 37.5639 29.1658 37.6087 29.166 37.6554V42.7538C29.166 44.9581 30.3947 45.4974 32.0846 45.4974C33.4712 45.4974 34.5892 44.731 34.5892 44.731C34.5892 44.731 34.6419 45.1353 34.6665 45.1827C34.6911 45.2305 34.7533 45.2787 34.8212 45.2787L36.1782 45.2727C36.2014 45.2726 36.2243 45.268 36.2457 45.259C36.2671 45.2501 36.2865 45.237 36.3028 45.2205C36.3191 45.2041 36.3321 45.1846 36.3408 45.1631C36.3496 45.1417 36.3541 45.1187 36.354 45.0955L36.353 37.6544C36.3528 37.6077 36.3342 37.5631 36.3013 37.53C36.2684 37.497 36.2238 37.4782 36.1772 37.4779L36.1765 37.4782ZM41.9217 37.2293C40.7278 37.2293 39.9157 37.7619 39.9157 37.7619V34.0083C39.9158 33.9852 39.9114 33.9623 39.9027 33.941C39.894 33.9196 39.8812 33.9001 39.8649 33.8837C39.8487 33.8673 39.8294 33.8542 39.8081 33.8452C39.7869 33.8363 39.764 33.8316 39.741 33.8315H37.6172C37.594 33.8315 37.5711 33.836 37.5497 33.8449C37.5283 33.8538 37.5088 33.8669 37.4925 33.8833C37.4762 33.8998 37.4632 33.9193 37.4545 33.9407C37.4457 33.9622 37.4412 33.9851 37.4414 34.0083V45.0931C37.4412 45.1162 37.4457 45.1392 37.4545 45.1607C37.4632 45.1821 37.4762 45.2016 37.4925 45.218C37.5088 45.2345 37.5283 45.2475 37.5497 45.2564C37.5711 45.2653 37.594 45.2699 37.6172 45.2699H39.0909C39.1577 45.2699 39.2076 45.2358 39.2446 45.1757C39.2808 45.1159 39.3339 44.6645 39.3339 44.6645C39.3339 44.6645 40.2022 45.4872 41.8468 45.4872C43.7769 45.4872 44.8843 44.5084 44.8843 41.0919C44.8843 37.6754 43.116 37.229 41.9213 37.229L41.9217 37.2293ZM41.092 43.4745C40.3632 43.4523 39.8686 43.1215 39.8686 43.1215V39.6112C39.8686 39.6112 40.3565 39.3123 40.9549 39.2582C41.7118 39.1903 42.4413 39.4192 42.4413 41.2248C42.4413 43.1292 42.1126 43.5051 41.0924 43.4741L41.092 43.4745ZM18.7014 43.433C18.6089 43.433 18.3719 43.4706 18.1283 43.4706C17.3478 43.4706 17.0831 43.1078 17.0831 42.6381V39.5212H18.6722C18.6954 39.5212 18.7183 39.5166 18.7398 39.5076C18.7612 39.4987 18.7806 39.4856 18.797 39.4692C18.8133 39.4527 18.8262 39.4332 18.835 39.4117C18.8437 39.3902 18.8481 39.3672 18.848 39.344V37.6368C18.848 37.6136 18.8436 37.5907 18.8348 37.5693C18.826 37.5479 18.813 37.5284 18.7967 37.512C18.7804 37.4956 18.761 37.4826 18.7396 37.4737C18.7182 37.4649 18.6953 37.4603 18.6722 37.4603H17.0831L17.0806 35.3615C17.0806 35.2817 17.0399 35.2419 16.9478 35.2419H14.7821C14.6985 35.2419 14.6531 35.2792 14.6531 35.3597V37.5288C14.6531 37.5288 13.5678 37.7908 13.4947 37.8119C13.4582 37.8225 13.4261 37.8447 13.4033 37.8751C13.3805 37.9056 13.3681 37.9426 13.3681 37.9806V39.3436C13.368 39.3667 13.3724 39.3896 13.3811 39.411C13.3898 39.4323 13.4027 39.4518 13.4189 39.4682C13.4351 39.4846 13.4544 39.4977 13.4757 39.5067C13.497 39.5156 13.5198 39.5203 13.5429 39.5204H14.6531V42.7998C14.6531 45.2362 16.3617 45.4752 17.5148 45.4752C18.0411 45.4752 18.6715 45.3065 18.7755 45.2678C18.8388 45.2442 18.875 45.1792 18.875 45.1085L18.8764 43.6091C18.8757 43.5627 18.857 43.5183 18.8242 43.4854C18.7914 43.4524 18.7471 43.4335 18.7006 43.4326L18.7014 43.433Z" fill="white"/>
</g>
<defs>
<clipPath id="clip0_997_8">
<rect width="45" height="45" fill="white" transform="translate(0 0.5)"/>
</clipPath>
</defs>
</svg>
