<svg width="33" height="46" viewBox="0 0 45 58" fill="none" xmlns="http://www.w3.org/2000/svg">
<path d="M28.5255 24.9838C29.556 25.5733 30.582 26.1583 31.464 26.8963C31.167 25.1323 30.7305 23.6608 30.141 22.1938C28.6695 22.4863 27.054 22.7833 25.4385 23.2243C26.469 23.8093 27.4995 24.3943 28.5255 24.9838Z" fill="#F2F2F2"/>
<path d="M7.2135 35.4196C8.0955 36.5941 9.27 37.7731 10.449 38.9476C10.3005 37.7731 10.3005 36.5941 10.3005 35.4196C10.3005 34.2451 10.3005 33.0661 10.449 31.8916C9.27 33.0661 8.2395 34.2451 7.2135 35.4196Z" fill="#F2F2F2"/>
<path d="M32.4945 22.041C33.228 24.0975 33.8175 26.3025 34.2585 28.8045C36.171 30.42 37.935 32.04 39.258 33.6555C41.463 30.276 42.0525 27.189 40.725 24.984C39.5505 23.0715 37.0485 22.0455 33.3765 22.0455C33.084 21.897 32.7915 21.897 32.4945 22.041Z" fill="#F2F2F2"/>
<path d="M37.791 35.4196C36.909 34.2451 35.73 33.0661 34.5555 31.8916C34.704 33.0661 34.704 34.2451 34.704 35.4196C34.704 36.5941 34.704 37.7731 34.5555 38.9476C35.73 37.7731 36.7605 36.5941 37.791 35.4196Z" fill="#F2F2F2"/>
<path d="M22.5 46.4446C24.1155 45.7111 25.8795 44.9776 27.4995 43.9471C29.115 43.0651 30.735 42.0391 32.058 40.8601C32.3505 39.0961 32.499 37.1836 32.499 35.2711C32.499 33.3631 32.3505 31.5946 32.058 29.6866C30.5865 28.6561 29.1195 27.6301 27.4995 26.5996C25.884 25.7176 24.264 24.8356 22.5 24.1021C20.8845 24.8356 19.1205 25.5736 17.5005 26.5996C15.885 27.4816 14.265 28.5121 12.9465 29.6866C12.654 31.4506 12.5055 33.3631 12.5055 35.2711C12.5055 37.1836 12.654 39.0916 12.9465 40.8601C14.418 41.8861 15.885 42.9166 17.5005 43.9471C19.1205 44.9776 20.8845 45.7111 22.5 46.4446Z" fill="#F2F2F2"/>
<path d="M22.5 48.7979C20.295 49.6799 17.946 50.2694 15.885 50.7104C17.649 54.2384 20.0025 56.2994 22.5 56.2994C25.002 56.2994 27.351 54.0944 29.115 50.7104C27.0585 50.4134 24.705 49.6799 22.5 48.7979Z" fill="#F2F2F2"/>
<path d="M12.5055 48.7982C11.772 46.7417 11.1825 44.5367 10.7415 42.0347C8.82902 40.5632 7.21352 38.7992 5.74202 37.1792C3.53702 40.5587 2.94752 43.6457 4.27502 45.8552C5.44952 47.7677 7.95152 48.7937 11.6235 48.7937C11.916 48.9422 12.2085 48.9422 12.5055 48.7982Z" fill="#F2F2F2"/>
<path d="M10.8855 28.6561C11.3265 26.1586 11.7675 23.9536 12.6495 21.8926C12.357 21.8926 12.06 21.8926 11.7675 21.8926C8.23951 21.8926 5.59351 22.9186 4.41901 24.8311C3.24451 26.8876 3.68551 29.9746 5.89051 33.5026C7.35751 31.8916 8.97751 30.2761 10.8855 28.6561Z" fill="#F2F2F2"/>
<path d="M22.5 22.0409C24.705 21.1589 27.0585 20.5694 29.115 20.1284C27.351 16.6049 25.002 14.5439 22.5 14.5439C20.0025 14.5439 17.649 16.7489 15.885 20.1329C17.946 20.4254 20.295 21.1634 22.5 22.0409Z" fill="#F2F2F2"/>
<path d="M16.4745 45.8598C15.444 45.2703 14.418 44.6853 13.536 43.9473C13.8285 45.5628 14.418 47.1828 14.859 48.5058C16.326 48.2133 17.946 47.9163 19.5615 47.4753C18.531 47.0343 17.5005 46.4448 16.4745 45.8598Z" fill="#F2F2F2"/>
<path d="M13.5315 51.003C12.942 51.003 12.357 51.1515 11.7675 51.1515C9.56251 51.1515 7.65001 50.859 6.18301 50.1255C9.27001 53.6535 13.5315 56.1555 18.234 57.033C16.326 55.7055 14.7105 53.649 13.5315 51.003Z" fill="#F2F2F2"/>
<path d="M11.6235 19.692C12.213 19.692 12.798 19.692 13.3875 19.8405C14.7105 17.1945 16.1775 15.1335 17.9415 13.8105C13.239 14.841 8.9775 17.3385 5.8905 20.7225C7.6545 20.133 9.5625 19.692 11.6235 19.692Z" fill="#F2F2F2"/>
<path d="M4.12651 35.8607C4.27501 35.7122 4.27501 35.5682 4.41901 35.4197C4.27051 35.2712 4.27051 35.1272 4.12651 34.9787C2.65501 32.6252 1.77301 30.4202 1.48051 28.5122C0.891012 30.7172 0.450012 32.9222 0.450012 35.4197C0.450012 37.9172 0.891012 40.1222 1.62451 42.3272C1.77301 40.4192 2.65501 38.2142 4.12651 35.8607Z" fill="#F2F2F2"/>
<path d="M33.3765 51.1471C32.787 51.1471 32.202 51.1471 31.6125 50.9986C30.2895 53.6446 28.818 55.7056 27.054 57.0286C31.7565 55.9981 36.0225 53.5006 39.1095 50.1211C37.35 50.7061 35.4375 51.1471 33.3765 51.1471Z" fill="#F2F2F2"/>
<path d="M40.581 45.8595C41.904 43.6545 41.1705 40.5675 38.9655 37.188C37.494 38.8035 35.8785 40.5675 33.9705 42.039C33.5295 44.541 32.94 46.7415 32.2065 48.8025C32.499 48.8025 32.796 48.8025 33.0885 48.8025C36.9045 48.942 39.5505 47.7675 40.581 45.8595Z" fill="#F2F2F2"/>
<path d="M28.5255 45.8598C27.495 46.4448 26.4645 47.0343 25.4385 47.4753C27.054 47.9163 28.674 48.3573 30.141 48.5058C30.7305 47.1828 31.167 45.5673 31.464 43.9473C30.5865 44.6808 29.556 45.2703 28.5255 45.8598Z" fill="#F2F2F2"/>
<path d="M16.4745 24.9839C17.5005 24.3944 18.531 23.8094 19.5615 23.3639C17.946 22.9229 16.326 22.4819 14.859 22.3379C14.2695 23.6609 13.8285 25.2764 13.536 26.8964C14.418 26.1584 15.444 25.5689 16.4745 24.9839Z" fill="#F2F2F2"/>
<path d="M31.4685 19.836C32.058 19.836 32.643 19.6875 33.2325 19.6875C35.4375 19.6875 37.3455 19.98 38.817 20.7135C35.73 17.19 31.4685 14.6925 26.766 13.8105C28.674 15.1335 30.294 17.1945 31.4685 19.836Z" fill="#F2F2F2"/>
<path d="M43.3755 28.5122C43.227 30.5687 42.345 32.7737 40.7295 34.9787C40.581 35.1272 40.581 35.2712 40.437 35.4197C42.0525 37.7732 43.083 40.2707 43.3755 42.3272C44.109 40.1222 44.55 37.7732 44.55 35.4197C44.55 32.9222 44.109 30.7172 43.3755 28.5122Z" fill="#F2F2F2"/>
<path d="M8.90169 1.05589V7.89837H7.89485V4.9054H5.00683V7.89837H4V1.05589H5.00683V3.98979H7.89485V1.05589H8.90169Z" fill="white"/>
<path d="M13.0269 7.96729C12.4557 7.96729 11.9288 7.81961 11.446 7.52425C10.969 7.22233 10.5893 6.80554 10.3066 6.2739C10.0299 5.73569 9.89154 5.13184 9.89154 4.46236C9.89154 3.79288 10.0299 3.19232 10.3066 2.66068C10.5893 2.12903 10.969 1.71553 11.446 1.42017C11.9288 1.11825 12.4557 0.967285 13.0269 0.967285C13.6039 0.967285 14.1308 1.11825 14.6078 1.42017C15.0906 1.71553 15.4703 2.12903 15.7471 2.66068C16.0238 3.19232 16.1622 3.79288 16.1622 4.46236C16.1622 5.13184 16.0238 5.73569 15.7471 6.2739C15.4703 6.80554 15.0906 7.22233 14.6078 7.52425C14.1308 7.81961 13.6039 7.96729 13.0269 7.96729ZM13.0269 6.9926C13.4331 6.9926 13.7952 6.89087 14.1132 6.6874C14.4311 6.47737 14.6784 6.18201 14.8551 5.80132C15.0376 5.41407 15.1288 4.96775 15.1288 4.46236C15.1288 3.95697 15.0376 3.51393 14.8551 3.13325C14.6784 2.75256 14.4311 2.46049 14.1132 2.25702C13.7952 2.05355 13.4331 1.95181 13.0269 1.95181C12.6206 1.95181 12.2585 2.05355 11.9405 2.25702C11.6226 2.46049 11.3724 2.75256 11.1898 3.13325C11.0132 3.51393 10.9249 3.95697 10.9249 4.46236C10.9249 4.96775 11.0132 5.41407 11.1898 5.80132C11.3724 6.18201 11.6226 6.47737 11.9405 6.6874C12.2585 6.89087 12.6206 6.9926 13.0269 6.9926Z" fill="white"/>
<path d="M19.1754 7.96729C18.7633 7.96729 18.3923 7.88852 18.0626 7.731C17.7329 7.56691 17.4738 7.33719 17.2854 7.04183C17.097 6.74647 17.0028 6.40188 17.0028 6.00807H18.0803C18.1038 6.30343 18.2069 6.54628 18.3894 6.73662C18.5778 6.92697 18.8398 7.02214 19.1754 7.02214C19.5228 7.02214 19.7937 6.93025 19.988 6.74647C20.1823 6.55613 20.2794 6.31328 20.2794 6.01792C20.2794 5.78819 20.2176 5.60113 20.0939 5.45674C19.9762 5.31234 19.826 5.20076 19.6435 5.122C19.4669 5.04323 19.2196 4.95791 18.9016 4.86602C18.5013 4.74788 18.1745 4.62973 17.9213 4.51159C17.674 4.38688 17.462 4.19654 17.2854 3.94056C17.1088 3.68459 17.0204 3.34328 17.0204 2.91665C17.0204 2.52284 17.1088 2.17826 17.2854 1.8829C17.462 1.58754 17.7093 1.3611 18.0273 1.20357C18.3452 1.04605 18.7132 0.967285 19.1313 0.967285C19.7259 0.967285 20.2117 1.13465 20.5885 1.46939C20.9712 1.79757 21.1832 2.25045 21.2244 2.82804H20.1116C20.0939 2.57863 19.988 2.36532 19.7937 2.1881C19.5994 2.01089 19.3432 1.92228 19.0253 1.92228C18.7368 1.92228 18.5013 2.00432 18.3187 2.16841C18.1362 2.3325 18.0449 2.56879 18.0449 2.87727C18.0449 3.0873 18.1009 3.26124 18.2127 3.39907C18.3305 3.53034 18.4777 3.63536 18.6543 3.71412C18.831 3.79288 19.0724 3.87821 19.3786 3.9701C19.7848 4.09481 20.1145 4.21951 20.3677 4.34422C20.6268 4.46893 20.8446 4.66255 21.0213 4.92509C21.2038 5.18107 21.2951 5.52565 21.2951 5.95885C21.2951 6.30671 21.2097 6.63489 21.0389 6.94338C20.8741 7.25186 20.6297 7.50128 20.3059 7.69162C19.988 7.8754 19.6111 7.96729 19.1754 7.96729Z" fill="white"/>
<path d="M26.4486 1.05589V1.9715H24.8147V7.89837H23.8079V1.9715H22.1651V1.05589H26.4486Z" fill="white"/>
<path d="M28.4751 1.05589V7.89837H27.4683V1.05589H28.4751Z" fill="white"/>
<path d="M34.84 7.89837H33.8331L30.8038 2.78866V7.89837H29.797V1.04605H30.8038L33.8331 6.14591V1.04605H34.84V7.89837Z" fill="white"/>
<path d="M40.6046 3.02495C40.4456 2.68365 40.2248 2.42767 39.9422 2.25702C39.6596 2.0798 39.3328 1.9912 38.9618 1.9912C38.5556 1.9912 38.1935 2.09293 37.8755 2.2964C37.5576 2.49987 37.3073 2.78866 37.1248 3.16278C36.9482 3.53691 36.8599 3.9701 36.8599 4.46236C36.8599 4.95463 36.9482 5.3911 37.1248 5.77179C37.3073 6.14591 37.5576 6.4347 37.8755 6.63817C38.1935 6.84164 38.5556 6.94338 38.9618 6.94338C39.5094 6.94338 39.9539 6.77272 40.2954 6.43142C40.6369 6.09012 40.846 5.62739 40.9225 5.04323H38.6174V4.14731H42V5.02354C41.9352 5.55519 41.7645 6.04417 41.4878 6.49049C41.2169 6.93681 40.8607 7.29452 40.4191 7.56363C39.9834 7.82617 39.4976 7.95744 38.9618 7.95744C38.3848 7.95744 37.8579 7.80976 37.3809 7.5144C36.904 7.21248 36.5242 6.7957 36.2416 6.26405C35.9649 5.73241 35.8265 5.13184 35.8265 4.46236C35.8265 3.79288 35.9649 3.19232 36.2416 2.66068C36.5242 2.12903 36.904 1.71553 37.3809 1.42017C37.8637 1.11825 38.3907 0.967285 38.9618 0.967285C39.6154 0.967285 40.1954 1.14778 40.7017 1.50878C41.214 1.86321 41.5849 2.3686 41.8145 3.02495H40.6046Z" fill="white"/>
</svg>
