<svg width="33" height="46" viewBox="0 0 33 46" fill="none" xmlns="http://www.w3.org/2000/svg">
<g clip-path="url(#clip0_997_49)">
<path d="M0.607422 9.29346L0.612456 9.6956C0.615229 9.91678 1.25691 17.2399 2.03842 25.9691L3.45936 41.8405L9.84577 43.6261C13.3583 44.6082 16.3047 45.4166 16.3933 45.4228C16.4819 45.429 19.4671 44.6287 23.0273 43.6443C28.7352 42.066 29.5057 41.8283 29.5466 41.6329C29.6036 41.3608 32.3987 9.87165 32.3959 9.53474L32.3938 9.29346H16.5005H0.607422Z" fill="#191B1E"/>
<path d="M9.89634 43.7328L3.45313 41.9343L3.36893 41.4584C3.29409 41.0353 0.5 9.87117 0.5 9.4594C0.5 9.31038 2.13139 9.29346 16.5006 9.29346C31.6682 9.29346 32.5012 9.30323 32.5 9.48112C32.4949 10.2495 29.6028 41.8263 29.5318 41.8892C29.442 41.9686 16.971 45.4381 16.5543 45.4996C16.4362 45.517 13.4401 44.722 9.89634 43.7328ZM20.5634 37.3779C22.729 36.7814 24.5322 36.2626 24.5704 36.225C24.6086 36.1875 24.862 33.6232 25.1335 30.5267C25.4051 27.4302 25.6546 24.6916 25.6881 24.4409L25.749 23.9851H21.0711H16.3932V25.969V27.953H18.9189H21.4445L21.3943 28.1943C21.3666 28.327 21.2592 29.4674 21.1556 30.7285C21.0457 32.0649 20.9155 33.0731 20.8435 33.145C20.7755 33.2129 19.7464 33.5276 18.5565 33.8443L16.3932 34.4201V36.4412C16.3932 37.8207 16.4302 38.4623 16.5096 38.4623C16.5735 38.4623 18.3978 37.9743 20.5634 37.3779ZM25.6875 21.4918C25.6165 20.9664 24.9842 13.9184 24.9842 13.6527C24.9842 13.4913 24.6124 13.4758 20.7424 13.4758H16.5006V15.5503V17.6249L18.4067 17.6982C19.4551 17.7386 20.5584 17.8 20.8585 17.8347L21.4042 17.8978L21.5366 19.5206C21.6095 20.4131 21.6963 21.3243 21.7296 21.5455L21.79 21.9476H23.7695H25.749L25.6875 21.4918Z" fill="#191B1E"/>
<path d="M9.84572 43.626L3.45932 41.8404L2.03839 25.969C1.25687 17.2398 0.615176 9.91678 0.612403 9.6956L0.607361 9.29346H16.5006H32.3938L32.3959 9.53474C32.3987 9.87165 29.6035 41.3608 29.5466 41.6329C29.5057 41.8283 28.7352 42.066 23.0272 43.6443C19.4671 44.6287 16.4818 45.4291 16.3932 45.4229C16.3046 45.4166 13.3582 44.6081 9.84572 43.626ZM20.5682 37.4537C22.7759 36.8408 24.6135 36.2887 24.6518 36.2268C24.6901 36.1649 24.9538 33.4697 25.2379 30.2374C25.5219 27.0051 25.7776 24.276 25.806 24.1728C25.8548 23.9955 25.4792 23.9851 18.9993 23.9851H12.1408L12.4329 20.902C12.5935 19.2063 12.7287 17.8145 12.7335 17.8092C12.7382 17.8038 13.7448 17.7717 14.9703 17.7379C16.9799 17.6825 21.124 17.8425 21.2626 17.981C21.3144 18.0327 21.6551 21.3711 21.6551 21.8268C21.6551 22.0515 21.6855 22.0548 23.736 22.0548H25.8168L25.7678 21.5991C25.7408 21.3484 25.5646 19.406 25.3761 17.2827L25.0334 13.4221L17.0085 13.3946C10.6242 13.3728 8.98334 13.3947 8.98264 13.5019C8.98208 13.576 8.93536 14.0468 8.87866 14.5481C8.74144 15.7613 7.69488 27.4829 7.69488 27.8067V28.0602H14.5234H21.3519L21.291 28.4623C21.2575 28.6835 21.1514 29.8055 21.0551 30.9556C20.9589 32.1058 20.8491 33.0765 20.8112 33.1128C20.7112 33.2087 16.6941 34.2804 16.4436 34.278C16.3273 34.2769 15.2898 34.0184 14.1381 33.7036L12.044 33.1312L11.9673 32.2311C11.925 31.736 11.8608 31.0294 11.8245 30.6607L11.7585 29.9905H9.72668H7.69488L7.69938 30.3926C7.70779 31.1447 8.19614 36.2104 8.26706 36.2813C8.34907 36.3632 16.1529 38.5538 16.3932 38.5624C16.4818 38.5655 18.3606 38.0666 20.5682 37.4537Z" fill="#E0E0E0"/>
<path d="M9.84572 43.626L3.45932 41.8404L2.03839 25.969C1.25687 17.2398 0.615176 9.91678 0.612403 9.6956L0.607361 9.29346H16.5006H32.3938L32.3959 9.53474C32.3987 9.87165 29.6035 41.3608 29.5466 41.6329C29.5057 41.8283 28.7352 42.066 23.0272 43.6443C19.4671 44.6287 16.4818 45.4291 16.3932 45.4229C16.3046 45.4166 13.3582 44.6081 9.84572 43.626ZM21.7555 41.2372C24.5649 40.463 26.9162 39.7754 26.9807 39.709C27.081 39.6057 29.5074 13.0505 29.4976 12.1621L29.4944 11.8672H22.9975H16.5006V12.6179V13.3685H12.7421C9.80729 13.3685 8.98333 13.3979 8.98264 13.5026C8.98208 13.5763 8.93536 14.0468 8.87866 14.5481C8.74144 15.7613 7.69488 27.4829 7.69488 27.8067V28.0602H12.0977H16.5006V31.1701C16.5006 33.5876 16.4707 34.2796 16.3664 34.278C16.2925 34.2769 15.2898 34.0184 14.1381 33.7036L12.044 33.1312L11.9673 32.2311C11.925 31.736 11.8608 31.0294 11.8245 30.6607L11.7585 29.9905H9.72668H7.69488L7.69938 30.3926C7.71225 31.5429 8.21053 36.2381 8.32739 36.3103C8.39842 36.3541 10.2664 36.8901 12.4786 37.5014L16.5006 38.6129V40.6287C16.5006 41.7375 16.5337 42.6446 16.5741 42.6446C16.6146 42.6446 18.9462 42.0113 21.7555 41.2372ZM12.4215 20.9308C12.5759 19.251 12.7233 17.8575 12.749 17.8343C12.7747 17.8111 13.6293 17.769 14.6482 17.7409L16.5006 17.6897V20.8374V23.9851H14.3207H12.1408L12.4215 20.9308Z" fill="#E0E0E0"/>
<path d="M10.7017 5.48659V4.46783H12.1514H13.6012V2.48391V0.5H14.6213H15.6415V3.50268V6.50536H13.1716H10.7017V5.48659ZM16.608 5.70107V4.89678H17.9503C18.6886 4.89678 19.2927 4.86953 19.2927 4.83622C19.2927 4.80291 18.6886 4.12189 17.9503 3.32285L16.608 1.87004V1.18502V0.5H19.4H22.1921V1.30099V2.10198L20.8813 2.13209L19.5706 2.1622L20.935 3.62956L22.2995 5.09693V5.80114V6.50536H19.4537H16.608V5.70107Z" fill="white"/>
</g>
<defs>
<clipPath id="clip0_997_49">
<rect width="32" height="45" fill="white" transform="translate(0.5 0.5)"/>
</clipPath>
</defs>
</svg>
