<svg width="33" height="46" viewBox="0 0 45 50" fill="none" xmlns="http://www.w3.org/2000/svg">
<path d="M3.25009 8.94994C2.83353 9.05203 2.44034 9.34313 2.21238 9.72853L2 10.0979V21.4599V32.8218L2.22017 33.1912C2.36162 33.4347 2.56621 33.6393 2.80975 33.7808L3.17916 34.0009L10.1299 34.0247L17.0806 34.0403L17.0335 34.9681C16.9785 36.3363 16.5304 37.5942 15.7362 38.6401L15.4373 39.0333L14.596 39.0567L13.7547 39.0804V39.8984V40.7241H18.7477H23.7407V34.8665V29.0084H13.6764H3.61171V19.7694V10.5305H20.3988H37.1862V15.5628V20.5952H38.0119H38.8455L38.8221 15.2955L38.7987 9.99585L38.563 9.64981C38.4293 9.469 38.162 9.22505 37.9734 9.11517L37.6196 8.91878L20.557 8.9032C11.168 8.90279 3.38375 8.91878 3.25009 8.94994ZM20.8317 30.7931C21.2565 31.0838 21.3819 31.4536 21.1855 31.8624C20.9104 32.4364 20.179 32.5467 19.778 32.067C19.1724 31.3515 20.0691 30.2663 20.8317 30.7931Z" fill="#F2F2F2"/>
<path d="M5.34192 13.9109V15.562H9.94171H14.5415V13.9109V12.2599H9.94171H5.34192V13.9109Z" fill="#F2F2F2"/>
<path d="M16.2712 13.9109V15.562H25.864H35.4568V13.9109V12.2599H25.8636H16.2712V13.9109Z" fill="#F2F2F2"/>
<path d="M5.34192 18.9437V20.5947H20.3992H35.4564V18.9437V17.2926H20.3992H5.34192V18.9437Z" fill="#F2F2F2"/>
<path d="M26.4536 22.474C26.0605 22.647 25.6595 23.0952 25.5496 23.4806C25.4869 23.6929 25.4709 27.31 25.4869 35.904L25.5106 48.0207L25.7464 48.3667C25.8801 48.5475 26.1474 48.7915 26.336 48.9014L26.6898 49.0978H33.8447C41.7311 49.0978 41.1808 49.1293 41.6999 48.6181C42.219 48.0912 42.1796 49.1921 42.1796 35.7309V23.5433L41.9832 23.1895C41.8729 23.0009 41.6294 22.7335 41.4486 22.5999L41.1025 22.3641L33.9394 22.3485C27.1297 22.3248 26.7521 22.3326 26.4536 22.474ZM37.0608 24.1017C37.1551 24.1882 37.1866 24.3846 37.1866 24.8409C37.1866 25.7688 37.4224 25.706 33.8213 25.706H30.8099L30.6213 25.5096C30.4561 25.3522 30.4249 25.2423 30.4249 24.8254C30.4249 24.5031 30.4643 24.2669 30.5508 24.1493L30.6689 23.9762H33.8062C36.5495 23.9758 36.9583 23.9914 37.0608 24.1017ZM40.5675 35.6916V44.1048H33.8447H27.1219V35.6916V27.2784H33.8447H40.5675V35.6916ZM34.7176 45.3237C35.3388 45.6853 35.661 46.4955 35.4568 47.2027C35.1108 48.4606 33.4991 48.8538 32.6184 47.9026C32.249 47.5094 32.1309 47.195 32.1703 46.6603C32.2486 45.3627 33.593 44.6632 34.7176 45.3237Z" fill="#F2F2F2"/>
<path d="M28.8517 29.8334V30.6592H33.8447H38.8376V29.8334V29.0077H33.8447H28.8517V29.8334Z" fill="#F2F2F2"/>
<path d="M28.8517 34.0399V35.6914H33.8447H38.8376V34.0403V32.3893H33.8447H28.8517V34.0399Z" fill="#F2F2F2"/>
<path d="M28.8517 39.8982V42.375H33.8447H38.8376V39.8982V37.4214H33.8447H28.8517V39.8982Z" fill="#F2F2F2"/>
<path d="M33.5225 46.0233C32.6811 46.3927 32.9562 47.5645 33.8841 47.5645C34.167 47.5645 34.5684 47.2344 34.6311 46.9433C34.7098 46.5895 34.4896 46.1651 34.167 46.0311C33.8369 45.8896 33.8287 45.8896 33.5225 46.0233Z" fill="#F2F2F2"/>
<path d="M2.67804 5.94126L1.53244 3.65874H1.04146V5.94126H0V0.083916H1.94902C2.35073 0.083916 2.69292 0.165035 2.9756 0.327272C3.25829 0.483916 3.46906 0.699301 3.60792 0.973427C3.75174 1.24196 3.82365 1.54406 3.82365 1.87972C3.82365 2.26573 3.72446 2.61538 3.52609 2.92867C3.32772 3.23636 3.03264 3.44895 2.64085 3.56643L3.88316 5.94126H2.67804ZM1.04146 2.77762H1.91183C2.19451 2.77762 2.40528 2.7021 2.54414 2.55105C2.683 2.39441 2.75243 2.17902 2.75243 1.9049C2.75243 1.63636 2.683 1.42937 2.54414 1.28392C2.40528 1.13287 2.19451 1.05734 1.91183 1.05734H1.04146V2.77762Z" fill="white"/>
<path d="M5.80708 1.03217V2.5007H7.55524V3.43217H5.80708V4.98462H7.77841V5.94126H4.76562V0.0755239H7.77841V1.03217H5.80708Z" fill="white"/>
<path d="M10.5177 6C10.1556 6 9.82831 5.93007 9.53571 5.79021C9.24806 5.65035 9.01993 5.44895 8.85132 5.18601C8.6827 4.92308 8.59591 4.61259 8.59095 4.25455H9.7068C9.72168 4.4951 9.79607 4.68532 9.92997 4.82518C10.0688 4.96504 10.2573 5.03497 10.4953 5.03497C10.7383 5.03497 10.9293 4.97063 11.0681 4.84196C11.207 4.70769 11.2764 4.53427 11.2764 4.32168C11.2764 4.14825 11.2293 4.00559 11.1351 3.89371C11.0409 3.78182 10.9218 3.69511 10.778 3.63357C10.6392 3.56643 10.4457 3.49371 10.1978 3.41538C9.86054 3.3035 9.5853 3.19441 9.37205 3.08811C9.16376 2.97622 8.98274 2.81119 8.829 2.59301C8.68022 2.36923 8.60583 2.07273 8.60583 1.7035C8.60583 1.35664 8.6827 1.05455 8.83644 0.797203C8.99018 0.53986 9.20591 0.344056 9.48363 0.20979C9.76136 0.0699299 10.0788 0 10.4358 0C10.9714 0 11.4054 0.148252 11.7377 0.444755C12.0749 0.735664 12.2609 1.14406 12.2956 1.66993H11.15C11.1401 1.46853 11.0632 1.3035 10.9194 1.17483C10.7805 1.04056 10.5945 0.973427 10.3614 0.973427C10.1581 0.973427 9.99444 1.03217 9.87046 1.14965C9.75144 1.26713 9.69193 1.43776 9.69193 1.66154C9.69193 1.81818 9.73656 1.94965 9.82583 2.05594C9.92005 2.15664 10.0341 2.24056 10.168 2.30769C10.3069 2.36923 10.5003 2.44196 10.7483 2.52587C11.0855 2.63776 11.3607 2.74965 11.574 2.86154C11.7872 2.97343 11.9707 3.14126 12.1245 3.36504C12.2782 3.58881 12.3551 3.88252 12.3551 4.24615C12.3551 4.55944 12.2832 4.85035 12.1394 5.11888C11.9955 5.38741 11.7848 5.6028 11.507 5.76504C11.2293 5.92168 10.8995 6 10.5177 6Z" fill="white"/>
<path d="M17.0445 1.8965C17.0445 2.20979 16.9775 2.5035 16.8436 2.77762C16.7147 3.05175 16.5088 3.27273 16.2262 3.44056C15.9484 3.60839 15.5963 3.69231 15.1698 3.69231H14.2995V5.94126H13.258V0.083916H15.1698C15.5715 0.083916 15.9137 0.162238 16.1964 0.318881C16.4791 0.475524 16.6899 0.690909 16.8287 0.965035C16.9725 1.23916 17.0445 1.54965 17.0445 1.8965ZM15.1252 2.74406C15.4128 2.74406 15.6261 2.67133 15.7649 2.52587C15.9038 2.37483 15.9732 2.16503 15.9732 1.8965C15.9732 1.32587 15.6906 1.04056 15.1252 1.04056H14.2995V2.74406H15.1252Z" fill="white"/>
<path d="M20.1941 6C19.7081 6 19.2618 5.87133 18.8551 5.61399C18.4484 5.35664 18.1261 5.0014 17.888 4.54825C17.65 4.08951 17.531 3.57203 17.531 2.9958C17.531 2.42517 17.65 1.91329 17.888 1.46014C18.1261 1.0014 18.4484 0.643356 18.8551 0.386013C19.2618 0.128671 19.7081 0 20.1941 0C20.6851 0 21.1314 0.128671 21.5331 0.386013C21.9398 0.643356 22.2597 1.0014 22.4928 1.46014C22.7308 1.91329 22.8498 2.42517 22.8498 2.9958C22.8498 3.57203 22.7308 4.08951 22.4928 4.54825C22.2597 5.0014 21.9398 5.35664 21.5331 5.61399C21.1265 5.87133 20.6801 6 20.1941 6ZM20.1941 4.95105C20.5066 4.95105 20.7818 4.87273 21.0198 4.71608C21.2579 4.55385 21.4439 4.32448 21.5778 4.02797C21.7117 3.73147 21.7786 3.38741 21.7786 2.9958C21.7786 2.6042 21.7117 2.26294 21.5778 1.97203C21.4439 1.67552 21.2579 1.44895 21.0198 1.29231C20.7818 1.13566 20.5066 1.05734 20.1941 1.05734C19.8817 1.05734 19.604 1.13566 19.361 1.29231C19.1229 1.44895 18.9369 1.67552 18.803 1.97203C18.6691 2.26294 18.6022 2.6042 18.6022 2.9958C18.6022 3.38741 18.6691 3.73147 18.803 4.02797C18.9369 4.32448 19.1229 4.55385 19.361 4.71608C19.604 4.87273 19.8817 4.95105 20.1941 4.95105Z" fill="white"/>
<path d="M28.0658 5.94126H27.0243L24.6661 1.92168V5.94126H23.6247V0.0755239H24.6661L27.0243 4.1035V0.0755239H28.0658V5.94126Z" fill="white"/>
<path d="M30.8878 6C30.5257 6 30.1984 5.93007 29.9058 5.79021C29.6182 5.65035 29.39 5.44895 29.2214 5.18601C29.0528 4.92308 28.966 4.61259 28.9611 4.25455H30.0769C30.0918 4.4951 30.1662 4.68532 30.3001 4.82518C30.4389 4.96504 30.6274 5.03497 30.8654 5.03497C31.1084 5.03497 31.2994 4.97063 31.4382 4.84196C31.5771 4.70769 31.6465 4.53427 31.6465 4.32168C31.6465 4.14825 31.5994 4.00559 31.5052 3.89371C31.411 3.78182 31.2919 3.69511 31.1481 3.63357C31.0093 3.56643 30.8158 3.49371 30.5679 3.41538C30.2306 3.3035 29.9554 3.19441 29.7421 3.08811C29.5339 2.97622 29.3528 2.81119 29.1991 2.59301C29.0503 2.36923 28.9759 2.07273 28.9759 1.7035C28.9759 1.35664 29.0528 1.05455 29.2065 0.797203C29.3603 0.53986 29.576 0.344056 29.8537 0.20979C30.1315 0.0699299 30.4489 0 30.8059 0C31.3415 0 31.7755 0.148252 32.1078 0.444755C32.445 0.735664 32.631 1.14406 32.6657 1.66993H31.5201C31.5102 1.46853 31.4333 1.3035 31.2895 1.17483C31.1506 1.04056 30.9646 0.973427 30.7315 0.973427C30.5282 0.973427 30.3645 1.03217 30.2406 1.14965C30.1215 1.26713 30.062 1.43776 30.062 1.66154C30.062 1.81818 30.1067 1.94965 30.1959 2.05594C30.2902 2.15664 30.4042 2.24056 30.5381 2.30769C30.677 2.36923 30.8704 2.44196 31.1184 2.52587C31.4556 2.63776 31.7308 2.74965 31.9441 2.86154C32.1573 2.97343 32.3408 3.14126 32.4946 3.36504C32.6483 3.58881 32.7252 3.88252 32.7252 4.24615C32.7252 4.55944 32.6533 4.85035 32.5095 5.11888C32.3656 5.38741 32.1549 5.6028 31.8771 5.76504C31.5994 5.92168 31.2696 6 30.8878 6Z" fill="white"/>
<path d="M34.6696 0.083916V5.94126H33.6281V0.083916H34.6696Z" fill="white"/>
<path d="M40.3628 0.083916L38.4584 5.94126H37.1938L35.2894 0.083916H36.4052L37.8335 4.74126L39.2544 0.083916H40.3628Z" fill="white"/>
<path d="M42.0287 1.03217V2.5007H43.7768V3.43217H42.0287V4.98462H44V5.94126H40.9872V0.0755239H44V1.03217H42.0287Z" fill="white"/>
</svg>
