<svg width="33" height="46" viewBox="0 0 53 40" fill="none" xmlns="http://www.w3.org/2000/svg">
<g clip-path="url(#clip0_997_227)">
<path fill-rule="evenodd" clip-rule="evenodd" d="M43.1704 2.95621L44.2487 4.37618C44.5333 4.75053 44.46 5.2884 44.0848 5.56809L42.9375 6.43728C43.1445 6.99236 43.2782 7.57755 43.3343 8.18427L44.6412 8.36069C45.107 8.42523 45.4348 8.85552 45.3701 9.32024L45.1285 11.0844C45.0638 11.5492 44.6325 11.8762 44.1667 11.8116L42.7434 11.618C42.4889 12.1688 42.1654 12.6765 41.7859 13.1326L42.5838 14.1782C42.8685 14.5526 42.7951 15.0905 42.4199 15.3745L40.9965 16.4502C40.6213 16.7342 40.0822 16.661 39.7975 16.2867L38.9262 15.1421C38.3698 15.3486 37.7789 15.482 37.1751 15.538L36.9983 16.8418C36.9336 17.3065 36.5022 17.6335 36.0364 17.5689L34.268 17.328C33.8022 17.2634 33.4744 16.8331 33.5391 16.3684L33.7332 14.9485C33.1811 14.6946 32.6722 14.3719 32.215 13.9889L31.1669 14.785C30.7916 15.0689 30.2525 14.9958 29.9678 14.6214L28.8895 13.2015C28.6049 12.8271 28.6782 12.2893 29.0534 12.0096L30.2007 11.1404C29.9937 10.5853 29.86 10.0001 29.8039 9.39339L28.497 9.21697C28.0312 9.15242 27.7034 8.72213 27.7681 8.25742L28.0096 6.49322C28.0743 6.0285 28.5057 5.70148 28.9715 5.76602L30.3948 5.95965C30.6493 5.40888 30.9728 4.90113 31.3566 4.44502L30.5544 3.39941C30.2697 3.02506 30.3431 2.48719 30.7183 2.2032L32.1416 1.12747C32.5169 0.843475 33.056 0.916625 33.3407 1.29098L34.212 2.43556C34.7684 2.22902 35.3593 2.09563 35.9631 2.03969L36.1399 0.740205C36.2046 0.275489 36.6359 -0.0515336 37.1018 0.0130103L38.8702 0.253974C39.336 0.318518 39.6638 0.748811 39.5991 1.21353L39.405 2.63349C39.9571 2.88736 40.466 3.21008 40.9232 3.59304L41.9713 2.797C42.3509 2.50871 42.89 2.58186 43.1704 2.95621ZM24.0286 5.91662C23.9294 5.92523 23.8302 5.93384 23.731 5.94244C21.3027 6.1748 18.9434 7.0569 16.9939 8.56723C14.7381 10.3099 13.0258 12.9175 12.3658 16.3727L12.1588 17.4528L11.0805 17.6421C10.0238 17.8271 9.07923 18.081 8.2511 18.4037C7.44885 18.7135 6.73287 19.0965 6.10746 19.5483C5.60714 19.9097 5.17582 20.3142 4.80921 20.7531C3.67485 22.1085 3.14864 23.8082 3.16158 25.5294C3.17452 27.2764 3.74386 29.0405 4.79627 30.4906C5.18876 31.0285 5.64164 31.5233 6.15922 31.9536L6.17216 31.9622L5.01624 35.0302C4.71 34.828 4.4124 34.6085 4.13636 34.3762C3.41175 33.7738 2.77771 33.0896 2.23857 32.3452C0.793663 30.3658 0.0172959 27.9476 4.3261e-05 25.538C-0.0172093 23.1025 0.741905 20.68 2.3809 18.7178C2.91142 18.081 3.53683 17.4958 4.25281 16.9794C5.08525 16.377 6.03845 15.8693 7.11674 15.4519C7.8586 15.1636 8.65222 14.9226 9.48898 14.729C10.4379 10.9683 12.4607 8.07239 15.0616 6.06292C17.4942 4.18255 20.4228 3.0853 23.4377 2.797C24.3564 2.70664 25.288 2.69373 26.2111 2.75828C26.0083 2.86585 25.8186 2.98633 25.6374 3.12403L25.6245 3.13263C24.792 3.76516 24.1925 4.72471 24.0372 5.84347L24.0286 5.91662ZM18.9132 37.5991H13.7978L13.0646 40.0001H8.45382L13.9531 25.4261H18.896L24.3737 40.0001H19.6464L18.9132 37.5991ZM17.9557 34.4407L16.3598 29.2041L14.7596 34.4407H17.9557ZM25.7841 25.4261H33.2933C34.9279 25.4261 36.1572 25.8134 36.9681 26.5879C37.7789 27.3624 38.1887 28.4726 38.1887 29.9054C38.1887 31.377 37.7401 32.5302 36.8559 33.3607C35.9674 34.1912 34.6088 34.6042 32.7886 34.6042H30.3129V40.0001H25.7841V25.4261ZM30.3129 31.6524H31.4257C32.3012 31.6524 32.918 31.5018 33.2717 31.1963C33.6254 30.8951 33.8022 30.5078 33.8022 30.0345C33.8022 29.5784 33.6469 29.1912 33.3407 28.8727C33.0345 28.5543 32.4565 28.3951 31.6068 28.3951H30.3129V31.6524ZM40.0131 25.4261H44.542V40.0001H40.0131V25.4261ZM48.3116 13.6576C48.7732 14.0147 49.2131 14.4192 49.6358 14.871C50.0973 15.3659 50.5329 15.9252 50.9427 16.5492C52.3229 18.6662 53.0302 21.4932 53 24.26C52.9698 26.9751 52.2366 29.6774 50.7356 31.6653C50.3733 32.143 49.9722 32.5905 49.5366 33.0078V26.7428C49.722 25.9381 49.8169 25.0905 49.8256 24.2342C49.8514 22.0526 49.3166 19.8624 48.2771 18.2703C47.9795 17.8099 47.6517 17.3968 47.3067 17.0268C47.0263 16.7256 46.7287 16.4502 46.4225 16.2092C46.4527 16.0801 46.4786 15.951 46.4958 15.822C46.5303 15.5552 46.5433 15.2841 46.526 15.013C46.8797 14.8753 47.2075 14.6903 47.5008 14.4665L47.5137 14.4579C47.8156 14.2256 48.083 13.9588 48.3116 13.6576ZM37.0457 5.32282C38.965 5.5853 40.3108 7.3495 40.0476 9.2686C39.7845 11.1834 38.0162 12.5259 36.0925 12.2634C34.1731 12.001 32.8274 10.2368 33.0905 8.31766C33.3536 6.39855 35.1263 5.06034 37.0457 5.32282Z" fill="#F2F2F2"/>
</g>
<defs>
<clipPath id="clip0_997_227">
<rect width="53" height="40" fill="white"/>
</clipPath>
</defs>
</svg>
