<svg width="19" height="20" viewBox="0 0 19 20" fill="none" xmlns="http://www.w3.org/2000/svg">
<path d="M15.3214 0.714285H3.53571C1.58371 0.714285 0 2.29799 0 4.25V16.0357C0 17.9877 1.58371 19.5714 3.53571 19.5714H10.067V12.2667H7.61161V9.41853H10.067V7.3192C10.067 4.88839 11.5647 3.5625 13.7377 3.5625C14.769 3.5625 15.6652 3.63616 15.923 3.67299V6.21428L14.4252 6.22656C13.2344 6.22656 13.0134 6.77902 13.0134 7.60156V9.41853H15.8248L15.4565 12.2667H13.0134V19.5714H15.3214C17.2734 19.5714 18.8571 17.9877 18.8571 16.0357V4.25C18.8571 2.29799 17.2734 0.714285 15.3214 0.714285Z" fill="#F5F5F5"/>
</svg>
